# xmcd
#
# Track frame offsets:
# 150
# 16495
# 31721
# 42347
# 63915
# 84002
# 100449
# 121608
# 136051
# 149387
# 165366
# 187364
#
# Disc length: 2675 seconds
#
#
# Revision: 0
# Processed by: cddbd v1.5.2PL0 Copyright (c) Steve Scherf et al.
# Submitted via: FreeRIP 2.944 
#
DISCID=930a710c
DTITLE=BRANDED - DIRECTIONS
DYEAR=1900
DGENRE=COUNTRY/CHRISTIAN
TTITLE0=TODAY
TTITLE1=TOO COOL TO CARE
TTITLE2=SWEETER EVERYDAY
TTITLE3=KING OF GLORY
TTITLE4=GOT IT MADE
TTITLE5=CHIPPIN' AWAY
TTITLE6=WHERE I BELONG
TTITLE7=LIFE'S RAILWAY
TTITLE8=LAST ONE OUT
TTITLE9=THE HARDWARE SONG
TTITLE10=13 DAYS
TTITLE11=WILL YOU FIND ME HERE
EXTD=
EXTT0=
EXTT1=
EXTT2=
EXTT3=
EXTT4=
EXTT5=
EXTT6=
EXTT7=
EXTT8=
EXTT9=
EXTT10=
EXTT11=
PLAYORDER=
